<?xml version="1.0" encoding="utf-8"?>
<!-- Generator: Adobe Illustrator 26.5.0, SVG Export Plug-In . SVG Version: 6.00 Build 0)  -->
<svg version="1.1" id="Capa_1" xmlns="http://www.w3.org/2000/svg" xmlns:xlink="http://www.w3.org/1999/xlink" x="0px" y="0px"
	 viewBox="0 0 52.1 53.7" style="enable-background:new 0 0 52.1 53.7;" xml:space="preserve">
<path d="M48.3,12.8c-2.4-4-5.8-7.1-10.1-9.4C33.9,1.2,28.9,0,23.3,0H0v53.7h23.3c5.7,0,10.8-1.1,15.1-3.4c4.3-2.3,7.7-5.4,10.1-9.6
	c2.4-4.1,3.6-8.9,3.6-14.3C51.9,21.4,50.7,16.8,48.3,12.8z M25.4,21.7v-2V9.2c0-0.5,0.4-0.9,0.9-0.9l0,0c1.5,0.1,3,0.2,4.4,0.4l0,0
	c0.4,0.1,0.8,0.5,0.8,0.9v12.1l0,0v1.5c0,0.7-0.6,1.3-1.3,1.3h-3.6c-0.7,0-1.3-0.6-1.3-1.3v-1.5H25.4z M16.5,12.8v-2.1v-1
	c0-0.5,0.3-0.8,0.8-0.9l0,0c1.4-0.2,2.9-0.4,4.4-0.4l0,0c0.5,0,0.9,0.4,0.9,0.9v3.6l0,0v1.4c0,0.7-0.6,1.3-1.3,1.3h-3.6
	c-0.7,0-1.3-0.6-1.3-1.3v-1.5H16.5z M7.6,13.9v-0.7V12c0-0.4,0.2-0.7,0.6-0.9l0,0c1.3-0.5,2.6-0.9,3.9-1.3c0.1,0,0.3-0.1,0.4-0.1
	l0,0c0.1,0,0.2,0,0.3,0c0.5,0,0.9,0.4,0.9,0.9v3.3l0,0v0.7c0,0.5-0.4,0.9-0.9,0.9H8.5c-0.5,0-0.9-0.4-0.9-0.9V13.9z M39.7,29.4
	L39.7,29.4c-0.7,2.7-1.9,5.2-3.4,7.4c-2.9,4.2-7.1,7.3-12,8.9h-0.7c-9.1-3-15.8-11.4-16.1-21.4c0-0.3,0-0.5,0-0.8v-3.4
	c0-1.1,0.9-1.9,1.9-1.9h12.3c0.4,0,0.8,0.4,0.8,0.8v0.9c0,2.5-2,4.5-4.5,4.5h-3.8v0.2c0,1.4,1.1,2.5,2.5,2.5h5.8
	c3.2,0,5.8,2.5,5.9,5.7l0,0c0,0.7,0.6,1.3,1.3,1.3c0.6,0,1.1-0.4,1.3-1V33v-0.1l0,0c0-0.2,0-0.3,0-0.5c0-1.7-0.7-3.2-1.8-4.3l0,0
	C29.1,28,29,27.9,29,27.7c0-0.3,0.2-0.6,0.6-0.6h8.1l0,0c1.1,0,1.9,0.9,1.9,1.9C39.8,29.1,39.8,29.3,39.7,29.4z M40.5,22.8
	c0,0.2,0,0.3,0,0.5c0,0.7-0.6,1.2-1.3,1.2h-3.6c-0.7,0-1.3-0.6-1.3-1.3v-1.1v-2.5v-9.1c0-0.5,0.4-0.9,0.9-0.9c0.1,0,0.1,0,0.2,0l0,0
	c0.1,0,0.3,0.1,0.4,0.1c1.3,0.4,2.6,0.8,3.9,1.3h0.1l0,0c0.3,0.2,0.5,0.5,0.5,0.8v11H40.5z"/>
</svg>
