<?xml version="1.0" encoding="utf-8"?>
<!-- Generator: Adobe Illustrator 26.5.0, SVG Export Plug-In . SVG Version: 6.00 Build 0)  -->
<svg version="1.1" id="Capa_1" xmlns="http://www.w3.org/2000/svg" xmlns:xlink="http://www.w3.org/1999/xlink" x="0px" y="0px"
	 viewBox="0 0 500 99.1" style="enable-background:new 0 0 500 99.1;" xml:space="preserve">
<style type="text/css">
	.st0{fill:#FFFFFF;}
</style>
<g>
	<g>
		<polygon class="st0" points="0,54.9 16.8,54.9 16.8,33.7 35.5,33.7 35.5,23.9 16.8,23.9 16.8,13 37,13 37,1.2 0,1.2 		"/>
		<rect x="44.5" y="1.2" class="st0" width="18" height="53.7"/>
		<polygon class="st0" points="109.7,30.1 88.3,1.2 72.7,1.2 72.7,54.9 86.5,54.9 86.5,26.9 108.1,54.9 123.7,54.9 123.7,1.2 
			109.7,1.2 		"/>
		<path class="st0" d="M144,1.2l-14.8,53.7h17.6l2.3-10.3h13.9l2,10.3h18.3L167.7,1.2H144z M150.6,35l5.3-23.5L161,35H150.6z"/>
		<polygon class="st0" points="205.2,1.2 188.4,1.2 188.4,54.9 223.9,54.9 223.9,43 205.2,43 		"/>
		<path class="st0" d="M267.2,20.8c-3.5-1-5.8-1.8-6.9-2.5c-1.1-0.6-1.7-1.4-1.7-2.4c0-1.9,1.7-2.8,5.2-2.8c2,0,4.1,0.2,6.3,0.7
			c2.2,0.4,4.7,1.2,7.6,2.1l4.2-11.8c-2.5-1.4-5.4-2.4-8.6-3.1c-3.2-0.7-6.5-1.1-9.8-1.1c-6.4,0-11.5,1.5-15.3,4.4
			c-3.8,2.9-5.7,7.3-5.7,13c0,3.7,1.2,7,3.5,9.8c2.3,2.8,5.6,4.9,9.8,6.1c3.4,1,6,1.8,7.7,2.5c1.7,0.7,2.9,1.3,3.4,1.8
			c0.6,0.5,0.9,1.2,0.9,1.9c0,1.1-0.5,1.9-1.6,2.5c-1.1,0.5-2.7,0.8-5,0.8c-4.2,0-9-1-14.4-2.9L243,52.1c5,2.7,11.2,4.1,18.6,4.1
			c7.3,0,12.9-1.5,16.6-4.6c3.7-3.1,5.6-7.5,5.6-13.3c0-4.2-1.4-7.7-4.2-10.7C276.8,24.4,272.7,22.2,267.2,20.8z"/>
		<polygon class="st0" points="328.9,1.2 288.4,1.2 288.4,13 299.5,13 299.5,54.9 317.7,54.9 317.7,13 328.9,13 		"/>
		<path class="st0" d="M342.4,1.2l-14.8,53.7h17.6l2.3-10.3h13.9l2,10.3h18.3L366.1,1.2H342.4z M349,35l5.3-23.5l5.1,23.5H349z"/>
		<polygon class="st0" points="423.8,30.1 402.4,1.2 386.8,1.2 386.8,54.9 400.7,54.9 400.7,26.9 422.2,54.9 437.8,54.9 437.8,1.2 
			423.8,1.2 		"/>
		<path class="st0" d="M496.4,13.9c-2.4-4-5.8-7.1-10.1-9.4c-4.3-2.2-9.3-3.4-14.9-3.4h-23.3v53.7h23.3c5.7,0,10.8-1.1,15.1-3.4
			c4.3-2.3,7.7-5.4,10.1-9.6c2.4-4.1,3.6-8.9,3.6-14.3C500,22.5,498.8,17.9,496.4,13.9z M473.5,22.8v-2V10.3c0-0.5,0.4-0.9,0.9-0.9
			c0,0,0,0,0,0c1.5,0.1,3,0.2,4.4,0.4c0,0,0,0,0,0c0.4,0.1,0.8,0.5,0.8,0.9v12.1h0v1.5c0,0.7-0.6,1.3-1.3,1.3h-3.6
			c-0.7,0-1.3-0.6-1.3-1.3V22.8z M464.6,13.9v-2.1v-1c0-0.5,0.3-0.8,0.8-0.9c0,0,0,0,0,0c1.4-0.2,2.9-0.4,4.4-0.4c0,0,0,0,0,0
			c0.5,0,0.9,0.4,0.9,0.9v3.6h0v1.4c0,0.7-0.6,1.3-1.3,1.3h-3.6c-0.7,0-1.3-0.6-1.3-1.3V13.9z M455.7,15v-0.7v-1.2
			c0-0.4,0.2-0.7,0.6-0.9c0,0,0,0,0,0c1.3-0.5,2.6-0.9,3.9-1.3c0.1,0,0.3-0.1,0.4-0.1c0,0,0,0,0,0c0.1,0,0.2,0,0.3,0
			c0.5,0,0.9,0.4,0.9,0.9V15h0v0.7c0,0.5-0.4,0.9-0.9,0.9h-4.3c-0.5,0-0.9-0.4-0.9-0.9V15z M487.8,30.5
			C487.8,30.5,487.8,30.5,487.8,30.5c-0.7,2.7-1.9,5.2-3.4,7.4c-2.9,4.2-7.1,7.3-12,8.9h-0.7c-9.1-3-15.8-11.4-16.1-21.4
			c0-0.3,0-0.5,0-0.8v-3.4c0-1.1,0.9-1.9,1.9-1.9h12.3c0.4,0,0.8,0.4,0.8,0.8V21c0,2.5-2,4.5-4.5,4.5h-3.8v0.2
			c0,1.4,1.1,2.5,2.5,2.5h5.8c3.2,0,5.8,2.5,5.9,5.7c0,0,0,0,0,0c0,0.7,0.6,1.3,1.3,1.3c0.6,0,1.1-0.4,1.3-1c0,0,0-0.1,0-0.1
			c0,0,0-0.1,0-0.1c0,0,0,0,0,0c0-0.2,0-0.3,0-0.5c0-1.7-0.7-3.2-1.8-4.3c0,0,0,0,0,0c-0.1-0.1-0.2-0.2-0.2-0.4
			c0-0.3,0.2-0.6,0.6-0.6h8.1l0,0c1.1,0,1.9,0.9,1.9,1.9C487.9,30.2,487.9,30.4,487.8,30.5z M488.6,23.9c0,0.2,0,0.3,0,0.5
			c0,0.7-0.6,1.2-1.3,1.2h-3.6c-0.7,0-1.3-0.6-1.3-1.3v-1.1v-2.5v-9.1c0-0.5,0.4-0.9,0.9-0.9c0.1,0,0.1,0,0.2,0c0,0,0,0,0,0
			c0.1,0,0.3,0.1,0.4,0.1c1.3,0.4,2.6,0.8,3.9,1.3c0,0,0.1,0,0.1,0c0,0,0,0,0,0c0.3,0.2,0.5,0.5,0.5,0.8V23.9z"/>
	</g>
	<g>
		<path d="M342.8,60.3h11.7V64h-6.4v3.4h5.9v3.1h-5.9v6.7h-5.3V60.3z"/>
		<path d="M356.9,60.3h5.7v17h-5.7V60.3z"/>
		<path d="M365.9,60.3h6.1c2.5,0,4.5,0.5,5.9,1.5c1.4,1,2.1,2.4,2.1,4.2c0,1.1-0.3,2.1-1,2.9c-0.7,0.8-1.6,1.5-2.8,1.9
			c-1.2,0.5-2.5,0.7-3.9,0.7h-1v5.8h-5.3V60.3z M374.3,67.5c0.5-0.4,0.7-0.9,0.7-1.6c0-0.7-0.2-1.2-0.7-1.6c-0.5-0.3-1.1-0.5-2-0.5
			h-1.1V68c0.3,0,0.7,0,1.1,0C373.1,68.1,373.8,67.9,374.3,67.5z"/>
		<path d="M386.5,60.3h7.4c1.8,0,3.4,0.4,4.7,1.1c1.4,0.7,2.4,1.7,3.2,3c0.8,1.3,1.1,2.7,1.1,4.3c0,1.7-0.4,3.2-1.1,4.5
			c-0.8,1.3-1.8,2.3-3.2,3c-1.4,0.7-3,1.1-4.8,1.1h-7.4V60.3z M393.6,72.8c1.2,0,2.2-0.4,2.8-1.2c0.7-0.8,1-1.8,1-3.1
			c0-1.2-0.3-2.1-1-2.8c-0.6-0.7-1.6-1-2.9-1H392v8.1H393.6z"/>
		<path d="M405.4,60.3h11.9V64h-5.9v3.1h5.4v3.1h-5.4v3.3h5.9v3.8h-11.9V60.3z"/>
		<path d="M419.5,76.4l1.2-3.8c1.7,0.6,3.2,0.9,4.5,0.9c0.7,0,1.3-0.1,1.6-0.3c0.3-0.2,0.5-0.4,0.5-0.8c0-0.2-0.1-0.4-0.3-0.6
			c-0.2-0.2-0.5-0.4-1.1-0.6c-0.5-0.2-1.4-0.5-2.4-0.8c-1.3-0.4-2.4-1-3.1-1.9s-1.1-1.9-1.1-3.1c0-1.8,0.6-3.2,1.8-4.1
			c1.2-0.9,2.8-1.4,4.8-1.4c1.1,0,2.1,0.1,3.1,0.3c1,0.2,1.9,0.5,2.7,1l-1.3,3.7c-0.9-0.3-1.7-0.5-2.4-0.7c-0.7-0.1-1.3-0.2-2-0.2
			c-1.1,0-1.6,0.3-1.6,0.9c0,0.3,0.2,0.5,0.5,0.8c0.4,0.2,1.1,0.5,2.2,0.8c1.7,0.5,3,1.2,3.9,2.1s1.3,2.1,1.3,3.4
			c0,1.8-0.6,3.2-1.8,4.2c-1.2,1-2.9,1.5-5.3,1.5C423,77.7,421.1,77.3,419.5,76.4z"/>
		<path d="M434.7,60.3h5.7v17h-5.7V60.3z"/>
		<path d="M447,76.5c-1.3-0.8-2.4-1.9-3.1-3.3s-1.1-2.9-1.1-4.6c0-1.6,0.4-3.1,1.1-4.4c0.8-1.3,1.8-2.4,3.2-3.2s2.9-1.2,4.7-1.2
			c1,0,1.9,0.1,2.8,0.3c0.9,0.2,1.7,0.5,2.4,0.9l-1.6,3.8c-1.1-0.5-2.2-0.7-3.1-0.7c-1.3,0-2.2,0.4-2.9,1.2c-0.7,0.8-1,1.9-1,3.2
			c0,0.9,0.2,1.6,0.5,2.3c0.3,0.7,0.8,1.2,1.3,1.6c0.6,0.4,1.2,0.6,1.9,0.6c0.4,0,0.7,0,1-0.1v-4l4.3-0.5v7.7
			c-1.9,0.9-3.8,1.3-5.7,1.3C449.9,77.7,448.4,77.3,447,76.5z"/>
		<path d="M459.9,60.3h5l6.8,9.2v-9.2h4.4v17h-4.9l-6.8-8.8v8.8h-4.4V60.3z"/>
		<path d="M485.6,77.1c-0.8-0.4-1.5-1-1.9-1.7c-0.5-0.7-0.7-1.6-0.7-2.5c0-2.1,1.1-3.7,3.4-4.8c-1.1-1.2-1.7-2.4-1.7-3.6
			c0-0.8,0.2-1.5,0.7-2.2c0.4-0.7,1.1-1.2,1.9-1.6c0.8-0.4,1.7-0.6,2.8-0.6c1.1,0,2,0.2,2.8,0.5c0.8,0.4,1.4,0.9,1.9,1.5
			c0.4,0.6,0.7,1.4,0.7,2.2c0,1-0.3,1.8-0.9,2.6c-0.6,0.8-1.4,1.4-2.4,1.8c0.3,0.3,0.5,0.6,0.6,0.8l1,1.2c0.6-0.6,1.3-1.3,2-2.2
			l2.5,2.3c-0.6,1.1-1.4,2-2.3,2.8l2.9,3.4h-5l-1.1-1.2c-1.4,1.1-2.8,1.6-4.5,1.6C487.3,77.7,486.4,77.5,485.6,77.1z M490.4,73.5
			l-2-2.6c-0.6,0.3-0.9,0.9-0.9,1.6c0,0.5,0.1,0.8,0.4,1.1c0.3,0.3,0.6,0.4,1.1,0.4C489.5,74,490,73.9,490.4,73.5z M491.3,65.7
			c0.2-0.3,0.3-0.6,0.3-1.1c0-0.3-0.1-0.6-0.3-0.8c-0.2-0.2-0.5-0.3-0.9-0.3c-0.9,0-1.3,0.4-1.3,1.1c0,0.3,0.1,0.6,0.3,0.9
			c0.2,0.3,0.5,0.6,0.9,0.9C490.8,66.2,491.1,65.9,491.3,65.7z"/>
		<path d="M244,81.7h7.4c1.8,0,3.4,0.4,4.7,1.1c1.4,0.7,2.4,1.7,3.2,3c0.8,1.3,1.1,2.7,1.1,4.3c0,1.7-0.4,3.2-1.1,4.5
			c-0.7,1.3-1.8,2.3-3.2,3c-1.4,0.7-3,1.1-4.8,1.1H244V81.7z M251.1,94.3c1.2,0,2.2-0.4,2.8-1.2s1-1.8,1-3.1c0-1.2-0.3-2.1-1-2.8
			c-0.6-0.7-1.6-1.1-2.9-1.1h-1.7v8.1H251.1z"/>
		<path d="M262.9,81.7h11.9v3.8h-5.9v3.1h5.4v3.1h-5.4V95h5.9v3.8h-11.9V81.7z"/>
		<path d="M276,81.7h5.6l2.6,10.6l2.6-10.6h5.8l-5.3,17H281L276,81.7z"/>
		<path d="M294.2,81.7h11.9v3.8h-5.9v3.1h5.4v3.1h-5.4V95h5.9v3.8h-11.9V81.7z"/>
		<path d="M308.9,81.7h5.3V95h5.9v3.8h-11.2V81.7z"/>
		<path d="M325.2,98c-1.4-0.8-2.4-1.8-3.2-3.2c-0.8-1.3-1.1-2.9-1.1-4.6c0-1.7,0.4-3.3,1.1-4.6c0.8-1.4,1.8-2.4,3.2-3.1
			c1.4-0.7,3-1.1,4.7-1.1c1.8,0,3.4,0.4,4.7,1.1c1.4,0.7,2.4,1.8,3.2,3.1c0.8,1.3,1.1,2.9,1.1,4.6c0,1.7-0.4,3.2-1.1,4.6
			c-0.8,1.3-1.8,2.4-3.2,3.2c-1.4,0.8-3,1.1-4.7,1.1C328.2,99.1,326.6,98.7,325.2,98z M332.5,93.4c0.7-0.8,1-1.9,1-3.2
			c0-0.9-0.2-1.7-0.5-2.3c-0.3-0.7-0.7-1.2-1.3-1.6c-0.5-0.4-1.2-0.6-1.9-0.6c-0.7,0-1.3,0.2-1.8,0.6c-0.5,0.4-1,0.9-1.3,1.6
			c-0.3,0.7-0.4,1.5-0.4,2.3c0,1.3,0.3,2.4,1,3.2c0.7,0.8,1.5,1.2,2.6,1.2C331,94.6,331.9,94.2,332.5,93.4z"/>
		<path d="M341.4,81.7h6.1c2.5,0,4.5,0.5,5.9,1.5c1.4,1,2.1,2.4,2.1,4.2c0,1.1-0.3,2.1-1,2.9c-0.7,0.8-1.6,1.5-2.8,1.9
			c-1.2,0.5-2.5,0.7-3.9,0.7h-1v5.8h-5.3V81.7z M349.9,88.9c0.5-0.4,0.7-0.9,0.7-1.6c0-0.7-0.2-1.2-0.7-1.6c-0.5-0.3-1.1-0.5-2-0.5
			h-1.1v4.2c0.3,0,0.7,0,1.1,0C348.7,89.5,349.4,89.3,349.9,88.9z"/>
		<path d="M357.5,81.7h5.1l4.2,8.3l4.2-8.3h5.1v17H371v-9.1l-3.1,5.9h-2.1l-3.2-5.9v9.1h-5.1V81.7z"/>
		<path d="M379.4,81.7h11.9v3.8h-5.9v3.1h5.4v3.1h-5.4V95h5.9v3.8h-11.9V81.7z"/>
		<path d="M394.1,81.7h5l6.8,9.2v-9.2h4.4v17h-4.9l-6.8-8.8v8.8h-4.4V81.7z"/>
		<path d="M416.1,85.5h-3.5v-3.8h12.8v3.8h-3.5v13.2h-5.8V85.5z"/>
		<path d="M435,85.5h-3.5v-3.8h12.8v3.8h-3.5v13.2H435V85.5z"/>
		<path d="M446.6,81.7h11.9v3.8h-5.9v3.1h5.4v3.1h-5.4V95h5.9v3.8h-11.9V81.7z"/>
		<path d="M464.5,81.7h7.5l4.9,17h-5.8l-0.6-3.3h-4.4l-0.7,3.3h-5.6L464.5,81.7z M469.9,92.4l-1.6-7.4l-1.7,7.4H469.9z"/>
		<path d="M478.6,81.7h5.1L488,90l4.2-8.3h5.1v17h-5.1v-9.1l-3.1,5.9h-2.1l-3.2-5.9v9.1h-5.1V81.7z"/>
	</g>
</g>
</svg>
